HIERARCHY
ROOT SimulationBone
{
	OFFSET 0.000000 0.000000 0.000000
	CHANNELS 6 Xposition Yposition Zposition Zrotation Yrotation Xrotation 
	JOINT Hips
	{
		OFFSET 0.000000 0.000000 0.000000
		CHANNELS 6 Xposition Yposition Zposition Zrotation Yrotation Xrotation 
		JOINT LeftUpLeg
		{
			OFFSET 0.103458 1.857831 10.548505
			CHANNELS 3 Zrotation Yrotation Xrotation
			JOINT LeftLeg
			{
				OFFSET 43.500000 -0.000031 0.000002
				CHANNELS 3 Zrotation Yrotation Xrotation
				JOINT LeftFoot
				{
					OFFSET 42.372200 0.000023 0.000003
					CHANNELS 3 Zrotation Yrotation Xrotation
					JOINT LeftToe
					{
						OFFSET 17.299997 -0.000001 -0.000010
						CHANNELS 3 Zrotation Yrotation Xrotation
						End Site
						{
							OFFSET 0.000000 0.000000 0.000000
						}
					}
				}
			}
		}
		JOINT RightUpLeg
		{
			OFFSET 0.103457 1.857828 -10.548510
			CHANNELS 3 Zrotation Yrotation Xrotation
			JOINT RightLeg
			{
				OFFSET 43.500046 -0.000015 0.000002
				CHANNELS 3 Zrotation Yrotation Xrotation
				JOINT RightFoot
				{
					OFFSET 42.372261 -0.000008 0.000023
					CHANNELS 3 Zrotation Yrotation Xrotation
					JOINT RightToe
					{
						OFFSET 17.299990 -0.000007 -0.000002
						CHANNELS 3 Zrotation Yrotation Xrotation
						End Site
						{
							OFFSET 0.000000 0.000000 0.000000
						}
					}
				}
			}
		}
		JOINT Spine
		{
			OFFSET 6.901967 -2.603726 -0.000001
			CHANNELS 3 Zrotation Yrotation Xrotation
			JOINT Spine1
			{
				OFFSET 12.588100 -0.000009 -0.000003
				CHANNELS 3 Zrotation Yrotation Xrotation
				JOINT Spine2
				{
					OFFSET 12.343202 0.000008 0.000008
					CHANNELS 3 Zrotation Yrotation Xrotation
					JOINT Neck
					{
						OFFSET 25.832897 -0.000015 -0.000004
						CHANNELS 3 Zrotation Yrotation Xrotation
						JOINT Head
						{
							OFFSET 11.766609 0.000013 -0.000006
							CHANNELS 3 Zrotation Yrotation Xrotation
							End Site
							{
								OFFSET 0.000000 0.000000 0.000000
							}
						}
					}
					JOINT LeftShoulder
					{
						OFFSET 19.745911 -1.480373 6.000098
						CHANNELS 3 Zrotation Yrotation Xrotation
						JOINT LeftArm
						{
							OFFSET 11.284123 -0.000007 -0.000032
							CHANNELS 3 Zrotation Yrotation Xrotation
							JOINT LeftForeArm
							{
								OFFSET 33.000050 0.000005 0.000031
								CHANNELS 3 Zrotation Yrotation Xrotation
								JOINT LeftHand
								{
									OFFSET 25.200008 0.000017 0.000013
									CHANNELS 3 Zrotation Yrotation Xrotation
									End Site
									{
										OFFSET 0.000000 0.000000 0.000000
									}
								}
							}
						}
					}
					JOINT RightShoulder
					{
						OFFSET 19.746092 -1.480379 -6.000077
						CHANNELS 3 Zrotation Yrotation Xrotation
						JOINT RightArm
						{
							OFFSET 11.284136 -0.000017 -0.000017
							CHANNELS 3 Zrotation Yrotation Xrotation
							JOINT RightForeArm
							{
								OFFSET 33.000099 0.000019 0.000015
								CHANNELS 3 Zrotation Yrotation Xrotation
								JOINT RightHand
								{
									OFFSET 25.199780 0.000140 0.000408
									CHANNELS 3 Zrotation Yrotation Xrotation
									End Site
									{
										OFFSET 0.000000 0.000000 0.000000
									}
								}
							}
						}
					}
				}
			}
		}
	}
}
MOTION
Frames: 10
Frame Time: 0.033333
-263.233182 0.000000 -447.981459 0.000000 61.876575 0.000000 0.562971 90.743210 0.834323 95.836473 -0.107126 -161.824644 152.972100 -6.297894 175.942504 -48.001190 -0.634273 -7.913846 70.399921 4.727223 -3.159058 21.454555 0.003114 0.000016 -176.897200 -5.948693 173.655511 -21.260690 3.728417 -0.598818 82.252669 -1.563239 -8.172881 21.454551 -0.003102 -0.000001 7.870614 0.214706 0.629825 5.730609 0.398176 1.269461 5.412598 0.405713 1.267026 18.770494 1.182838 9.332082 -6.203008 -8.839860 12.099879 -161.678118 -70.046240 -20.248060 11.264240 54.444599 49.677151 -27.209380 -16.388708 1.292879 12.425009 6.900836 18.490193 176.607313 78.955785 -1.906189 -55.168643 -53.724847 -0.094381 -59.120963 16.231805 -2.149627 2.170937 5.592803 -27.251828 
-263.329250 0.000000 -451.970634 0.000000 66.434342 0.000000 0.643776 90.427437 0.789938 95.344728 0.632872 -167.728739 153.657919 -6.526195 176.334775 -33.663899 -1.665595 -8.516416 67.880578 5.593801 -1.951359 21.454558 0.003105 0.000016 -173.283279 -4.947800 171.421943 -18.346440 4.481328 -0.441268 83.601167 -1.604124 -8.237267 21.454557 -0.003102 0.000002 7.708822 0.271485 0.886063 5.408757 0.501567 1.783771 5.090811 0.512192 1.780709 18.386574 0.316165 9.711735 -6.559004 -9.050264 12.575216 -160.167704 -69.325498 -21.816435 17.188618 51.005766 61.027030 -29.569562 -16.174513 1.322726 8.892228 4.649802 14.091597 174.183279 79.518251 -4.355827 -60.041816 -51.128167 4.726631 -65.510994 14.854118 -2.300235 -0.420461 7.220675 -29.083782 
-263.370732 0.000000 -455.948938 0.000000 70.639745 0.000000 0.885961 89.801193 0.717065 95.159190 1.188486 -172.582079 155.507998 -6.258893 177.057040 -19.357987 -2.841759 -10.871752 67.429779 6.877393 -3.324984 21.454558 0.003108 0.000017 -169.631300 -4.046405 169.542944 -16.283668 5.125189 0.048509 85.322306 -1.830448 -8.267065 21.454550 -0.003095 -0.000001 7.636595 0.316377 1.078366 5.265958 0.583709 2.169930 4.948091 0.596679 2.166354 18.002338 0.338794 10.034908 -6.900947 -9.480853 13.054813 -158.358592 -69.791078 -23.675676 22.511772 49.554727 68.491819 -31.031581 -16.343061 1.362491 7.067289 2.459817 9.283411 173.501217 79.932720 -5.037412 -63.878327 -48.697835 9.613396 -71.149842 13.120840 -2.408481 -0.589454 6.929875 -28.253407 
-263.361968 0.000000 -459.912743 0.000000 74.545732 0.000000 1.177431 88.961227 0.685302 95.222191 1.842253 -176.330237 156.236711 -5.727007 176.173514 -10.504705 -3.152654 -14.166833 65.575041 7.896971 -7.111523 21.454555 0.003106 0.000017 -166.323603 -3.627505 169.767070 -15.672265 5.235884 -0.130528 86.936724 -1.584951 -8.200860 21.454555 -0.003100 0.000000 7.628403 0.436088 1.165179 5.252522 0.819227 2.348869 4.934673 0.833258 2.343883 17.619892 0.366925 10.357031 -7.064222 -9.693307 13.458448 -156.466315 -70.178841 -25.619317 26.669657 49.260803 70.689056 -31.304666 -16.156654 1.356136 6.445568 2.065848 7.353852 173.047624 80.311154 -5.487287 -66.437195 -46.559029 13.480794 -75.512673 11.423967 -2.473033 -2.257139 7.085371 -25.212216 
-263.307297 0.000000 -463.858422 0.000000 78.202412 0.000000 1.541414 87.947372 0.653754 95.395903 2.341454 -178.954281 155.253096 -4.390493 170.743582 -10.006270 -2.625447 -14.582167 66.760578 8.782416 -5.551113 21.454557 0.003106 0.000018 -163.589683 -3.452393 170.395516 -16.644608 5.516967 0.062511 88.363257 -1.543935 -7.743054 21.454553 -0.003086 0.000002 7.607269 0.557593 1.145840 5.212674 1.063404 2.315585 4.894812 1.077242 2.309120 17.488416 0.411377 10.499887 -7.200192 -9.960175 13.692052 -154.998617 -70.328491 -27.128333 29.714120 49.750736 69.535574 -30.513372 -16.232098 1.344922 7.366621 4.022850 8.670677 174.421106 80.495992 -4.089190 -67.452995 -45.302432 16.661548 -79.518060 9.746698 -2.527304 -2.698705 6.106505 -24.119633 
-263.211060 0.000000 -467.782347 0.000000 81.655746 0.000000 1.923355 87.086456 0.648801 95.589605 2.392330 178.956597 154.779409 -3.299802 163.736601 -13.247889 -2.028733 -11.582042 66.320638 7.550215 -2.780153 21.454557 0.003108 0.000015 -161.627971 -3.211506 174.249792 -19.266540 4.807758 -1.350091 88.094141 -0.579953 -7.629684 21.454555 -0.003094 0.000000 7.496594 0.553399 1.114044 4.990999 1.058656 2.250838 4.673085 1.072070 2.244404 17.979565 0.547903 10.658334 -7.397855 -10.020934 13.905385 -153.916086 -70.229685 -28.245877 31.636668 50.417591 67.956899 -29.090302 -16.856833 1.357098 9.353131 6.039308 10.243230 177.095399 80.393068 -1.378703 -66.638474 -45.665545 19.282280 -83.260723 7.958296 -2.564860 -2.061664 4.985840 -25.762832 
-263.077596 0.000000 -471.680891 0.000000 84.947201 0.000000 2.515505 86.378540 0.638312 96.125010 2.103955 176.677425 154.587357 -2.242400 162.982602 -18.821116 -2.082585 -10.495679 65.460417 9.568038 4.998155 21.454560 0.003112 0.000016 -159.988247 -2.594402 177.117392 -22.918978 4.258832 -2.259755 85.725766 -0.068090 -7.419567 21.454555 -0.003097 -0.000004 7.417708 0.397978 1.158941 4.830294 0.747661 2.333421 4.512451 0.761591 2.328867 18.342999 0.714513 11.034037 -7.531568 -9.613480 14.208823 -153.198507 -69.522132 -29.003469 31.690295 50.688343 65.291513 -27.854814 -17.197819 1.355877 10.857616 5.949234 11.381014 -179.601969 79.691451 1.960825 -64.147327 -46.513691 19.316239 -85.690017 6.657314 -2.580378 -3.020851 4.691138 -28.533542 
-262.911245 0.000000 -475.550426 0.000000 88.113952 0.000000 2.978981 85.972229 0.525493 96.965202 1.024091 174.566380 154.472405 -0.419298 166.850019 -24.810264 -3.069908 -12.262114 66.042014 11.381641 6.634616 21.454557 0.003103 0.000018 -159.925929 -1.094415 -177.566067 -29.319953 2.554707 -4.221326 81.179769 1.298976 -6.380437 21.454557 -0.003094 -0.000002 7.388047 -0.010722 1.172375 4.762574 -0.069228 2.343302 4.444747 -0.055225 2.343672 18.965284 1.710322 11.499079 -8.020119 -9.998448 14.865845 -151.611294 -69.082220 -30.652414 30.215965 51.325955 62.616340 -26.876572 -17.185482 1.337698 10.999222 4.470905 10.797972 -177.237412 78.727745 4.350786 -60.405817 -48.059533 17.600808 -86.599723 6.324111 -2.597105 -3.357900 4.014902 -30.974700 
-262.716347 0.000000 -479.387325 0.000000 91.189439 0.000000 3.267961 85.579727 0.242120 97.697371 0.030858 172.455444 153.908054 1.170887 168.488746 -31.896707 -3.669374 -12.956163 70.269656 11.256014 5.818483 21.454560 0.003109 0.000016 -162.978026 1.232096 -174.130960 -40.711872 1.581580 -5.410923 75.595414 2.794038 -3.322347 21.454560 -0.003091 0.000002 7.373731 -0.365503 1.212589 4.726546 -0.779774 2.409403 4.408716 -0.765350 2.414062 19.302970 1.340944 12.079446 -8.348786 -10.022764 15.518895 -151.589014 -68.034421 -30.705501 27.555900 51.574154 59.763390 -27.423237 -17.878730 1.391378 10.583529 3.137080 10.410781 -174.728574 78.233922 6.899305 -56.770463 -49.764195 14.405793 -85.073244 7.240057 -2.594026 -3.317315 4.106821 -32.401857 
-262.497242 0.000000 -483.187960 0.000000 94.203547 0.000000 3.437687 85.716492 -0.092915 98.479450 -1.133490 169.973010 155.535688 3.140697 168.894814 -34.787318 -4.100206 -13.192606 73.766685 10.949894 5.130480 21.454560 0.003103 0.000017 -167.843074 4.317795 -172.837500 -53.943649 0.541726 -5.986552 70.703994 5.947311 4.753009 21.454557 -0.003092 0.000000 7.332333 -0.788841 1.358692 4.633183 -1.630903 2.685256 4.315314 -1.614793 2.695035 20.153569 1.640299 12.942003 -8.705882 -10.752646 16.676752 -152.013114 -68.107798 -30.265217 25.645113 52.574312 56.862725 -29.400932 -18.396826 1.461237 9.905541 2.308874 10.433202 -175.017505 77.663492 6.599688 -52.258440 -51.487844 9.547143 -81.445559 9.054015 -2.562357 -1.310398 4.754522 -34.417682 
